<svg width="470" height="78" viewBox="0 0 470 78" fill="none" xmlns="http://www.w3.org/2000/svg">
<path d="M7.76 77V21.08H17.2V68.04H42.72V77H7.76ZM61.7125 65.8C64.2725 68.36 67.4992 69.64 71.3925 69.64C75.2858 69.64 78.4858 68.36 80.9925 65.8C83.5525 63.1867 84.8325 59.8267 84.8325 55.72C84.8325 51.6133 83.5525 48.28 80.9925 45.72C78.4858 43.1067 75.2858 41.8 71.3925 41.8C67.4992 41.8 64.2725 43.1067 61.7125 45.72C59.2058 48.28 57.9525 51.6133 57.9525 55.72C57.9525 59.8267 59.2058 63.1867 61.7125 65.8ZM87.3925 71.32C83.1258 75.5333 77.7925 77.64 71.3925 77.64C64.9925 77.64 59.6592 75.5333 55.3925 71.32C51.1258 67.0533 48.9925 61.8533 48.9925 55.72C48.9925 49.5867 51.1258 44.4133 55.3925 40.2C59.6592 35.9333 64.9925 33.8 71.3925 33.8C77.7925 33.8 83.1258 35.9333 87.3925 40.2C91.6592 44.4133 93.7925 49.5867 93.7925 55.72C93.7925 61.8533 91.6592 67.0533 87.3925 71.32ZM115.26 77L98.14 34.44H107.42L120.38 66.6L133.34 34.44H142.62L125.5 77H115.26ZM169.121 33.8C174.935 33.8 179.761 35.4267 183.601 38.68C187.441 41.88 189.388 46.0667 189.441 51.24L189.521 51.4L158.481 64.44C161.255 67.8533 165.015 69.56 169.761 69.56C174.561 69.56 178.508 67.6933 181.601 63.96L186.881 69.8C181.815 75.0267 175.841 77.64 168.961 77.64C162.935 77.64 157.761 75.64 153.441 71.64C149.121 67.64 146.961 62.36 146.961 55.8C146.961 51.2667 148.081 47.2933 150.321 43.88C152.561 40.4133 155.335 37.88 158.641 36.28C161.948 34.6267 165.441 33.8 169.121 33.8ZM155.601 55.96C155.601 56.6533 155.628 57.16 155.681 57.48L179.281 47.32C177.468 43.8 174.241 42.04 169.601 42.04C166.081 42.04 162.855 43.2667 159.921 45.72C157.041 48.1733 155.601 51.5867 155.601 55.96ZM246.459 77H221.979V21.08H243.739C247.525 21.08 250.779 21.5333 253.499 22.44C256.272 23.3467 258.325 24.5733 259.659 26.12C262.219 29 263.499 32.2533 263.499 35.88C263.499 40.2533 262.112 43.5067 259.339 45.64C258.325 46.3867 257.632 46.8667 257.259 47.08C256.885 47.24 256.219 47.5333 255.259 47.96C258.725 48.7067 261.472 50.28 263.499 52.68C265.579 55.0267 266.619 57.96 266.619 61.48C266.619 65.3733 265.285 68.8133 262.619 71.8C259.472 75.2667 254.085 77 246.459 77ZM231.419 44.28H243.419C250.245 44.28 253.659 41.96 253.659 37.32C253.659 34.6533 252.832 32.7333 251.179 31.56C249.525 30.3867 246.965 29.8 243.499 29.8H231.419V44.28ZM231.419 68.28H246.219C249.685 68.28 252.325 67.7467 254.139 66.68C256.005 65.56 256.939 63.48 256.939 60.44C256.939 55.48 252.965 53 245.019 53H231.419V68.28ZM299.503 42.84C295.076 42.84 291.743 44.28 289.503 47.16C287.263 50.04 286.143 53.9067 286.143 58.76V77H277.183V34.44H286.143V43C287.583 40.3333 289.53 38.1467 291.983 36.44C294.49 34.7333 297.13 33.8533 299.903 33.8L299.983 42.84C299.823 42.84 299.663 42.84 299.503 42.84ZM317.94 77H308.98V34.44H317.94V77ZM309.54 25.96C308.42 24.84 307.86 23.5067 307.86 21.96C307.86 20.4133 308.42 19.08 309.54 17.96C310.66 16.84 311.993 16.28 313.54 16.28C315.087 16.28 316.42 16.84 317.54 17.96C318.66 19.08 319.22 20.4133 319.22 21.96C319.22 23.5067 318.66 24.84 317.54 25.96C316.42 27.08 315.087 27.64 313.54 27.64C311.993 27.64 310.66 27.08 309.54 25.96ZM348.293 77.64C342.906 77.64 338.213 75.6133 334.213 71.56C330.213 67.5067 328.213 62.1733 328.213 55.56C328.213 48.9467 330.266 43.6667 334.373 39.72C338.48 35.7733 343.36 33.8 349.013 33.8C354.72 33.8 359.306 36.2 362.773 41V17.64H371.733V77H362.773V70.6C359.466 75.2933 354.64 77.64 348.293 77.64ZM337.173 55.96C337.173 60.0133 338.48 63.32 341.093 65.88C343.706 68.44 346.773 69.72 350.293 69.72C353.813 69.72 356.8 68.44 359.253 65.88C361.706 63.2667 362.933 59.9333 362.933 55.88C362.933 51.8267 361.706 48.44 359.253 45.72C356.8 43 353.786 41.64 350.213 41.64C346.64 41.64 343.573 43 341.013 45.72C338.453 48.44 337.173 51.8533 337.173 55.96ZM403.243 86.04C411.136 86.04 415.083 80.9467 415.083 70.76V68.36C413.91 70.2267 412.043 71.8267 409.483 73.16C406.976 74.44 404.283 75.08 401.403 75.08C395.75 75.08 391.11 73.1067 387.483 69.16C383.856 65.2133 382.043 60.3067 382.043 54.44C382.043 48.5733 383.856 43.6667 387.483 39.72C391.11 35.7733 395.67 33.8 401.163 33.8C406.71 33.8 411.35 35.72 415.083 39.56V34.44H424.043V71C424.043 78.4133 422.096 84.0933 418.203 88.04C414.363 91.9867 409.376 93.96 403.243 93.96C398.55 93.96 394.416 92.84 390.843 90.6C387.323 88.36 384.763 85.16 383.163 81L391.003 77.64C393.136 83.24 397.216 86.04 403.243 86.04ZM390.843 54.12C390.843 57.5867 391.91 60.6 394.043 63.16C396.23 65.6667 399.136 66.92 402.763 66.92C406.443 66.92 409.403 65.6933 411.643 63.24C413.936 60.7867 415.083 57.7467 415.083 54.12C415.083 50.44 413.936 47.3467 411.643 44.84C409.35 42.28 406.39 41 402.763 41C399.136 41 396.23 42.3067 394.043 44.92C391.91 47.5333 390.843 50.6 390.843 54.12ZM456.387 33.8C462.2 33.8 467.027 35.4267 470.867 38.68C474.707 41.88 476.654 46.0667 476.707 51.24L476.787 51.4L445.747 64.44C448.52 67.8533 452.28 69.56 457.027 69.56C461.827 69.56 465.774 67.6933 468.867 63.96L474.147 69.8C469.08 75.0267 463.107 77.64 456.227 77.64C450.2 77.64 445.027 75.64 440.707 71.64C436.387 67.64 434.227 62.36 434.227 55.8C434.227 51.2667 435.347 47.2933 437.587 43.88C439.827 40.4133 442.6 37.88 445.907 36.28C449.214 34.6267 452.707 33.8 456.387 33.8ZM442.867 55.96C442.867 56.6533 442.894 57.16 442.947 57.48L466.547 47.32C464.734 43.8 461.507 42.04 456.867 42.04C453.347 42.04 450.12 43.2667 447.187 45.72C444.307 48.1733 442.867 51.5867 442.867 55.96Z" transform="translate(-7 -16)" fill="#EB5757"/>
</svg>
